<svg width="422" height="578" viewBox="0 0 422 578" fill="none" xmlns="http://www.w3.org/2000/svg">
<path d="M203.265 157.215L81.5491 394.64L101.377 410.338L216.128 186.853L203.265 157.215Z" fill="#44E1D8"/>
<path d="M9.2759 371.846C-8.38083 405.527 0.793545 447.031 31.0021 470.132L139.872 553.384C171.219 577.356 211.652 583.435 247.607 571.622L168.332 516.167L59.4625 432.914C47.3791 423.673 43.7093 407.072 50.7721 393.6L211.023 87.9108L186.446 33.8828L9.2759 371.846Z" fill="white"/>
<path fill-rule="evenodd" clip-rule="evenodd" d="M390.999 470.148C421.208 447.047 430.381 405.543 412.724 371.862L221.352 6.80596C216.966 -1.56032 204.99 -1.56032 200.604 6.80596L186.4 33.8989L210.977 87.9268L371.229 393.616C378.292 407.088 374.622 423.689 362.538 432.93L253.668 516.183C251.12 518.132 248.473 519.882 245.744 521.438L284.108 551.888L390.999 470.148ZM168.786 516.532L169.358 516.987C168.999 516.723 168.641 516.455 168.286 516.183L168.786 516.532Z" fill="white"/>
</svg>
